<svg width="30" height="30" viewBox="0 0 30 30" fill="none" xmlns="http://www.w3.org/2000/svg">
<g clip-path="url(#clip0_718_367)">
<path d="M29.4987 13.8833L18.019 2.40299C16.354 0.738553 13.6459 0.738553 11.9809 2.40299L0.501148 13.8833C0.140568 14.2439 0.140568 14.8283 0.501148 15.1889C0.861152 15.5495 1.44616 15.5495 1.80616 15.1889L2.53828 14.4568V26.1915C2.53828 27.6572 3.72647 28.8454 5.19216 28.8454H9.80759C10.1262 28.8454 10.3845 28.5871 10.3845 28.2684V19.7299C10.3845 18.1368 11.676 16.8452 13.2692 16.8452H16.7307C18.3239 16.8452 19.6154 18.1368 19.6154 19.7299V28.2684C19.6154 28.5871 19.8737 28.8454 20.1923 28.8454H24.8077C26.2734 28.8454 27.4616 27.6572 27.4616 26.1915V14.4568L28.1937 15.1889C28.3737 15.3689 28.6103 15.4595 28.8462 15.4595C29.0822 15.4595 29.3187 15.3689 29.4987 15.1889C29.8593 14.8283 29.8593 14.2439 29.4987 13.8833Z" fill="white"/>
</g>
<defs>
<clipPath id="clip0_718_367">
<rect width="29.5385" height="29.5385" fill="white" transform="translate(0.230713 0.230774)"/>
</clipPath>
</defs>
</svg>
