<svg width="48" height="48" viewBox="0 0 48 48" fill="none" xmlns="http://www.w3.org/2000/svg">
<path d="M36 37.72H34.48C32.88 37.72 31.36 38.34 30.24 39.46L26.8199 42.84C25.2599 44.38 22.72 44.38 21.16 42.84L17.74 39.46C16.62 38.34 15.08 37.72 13.5 37.72H12C8.68 37.72 6 35.06 6 31.78V9.94C6 6.66 8.68 4 12 4H36C39.32 4 42 6.66 42 9.94V31.76C42 35.04 39.32 37.72 36 37.72Z" stroke="white" stroke-width="1.5" stroke-miterlimit="10" stroke-linecap="round" stroke-linejoin="round"/>
<path d="M24.1399 17.9C24.0599 17.9 23.9398 17.9 23.8398 17.9C21.7398 17.82 20.0798 16.12 20.0798 14C20.0798 11.84 21.8199 10.1 23.9799 10.1C26.1399 10.1 27.8799 11.86 27.8799 14C27.8999 16.12 26.2399 17.84 24.1399 17.9Z" stroke="white" stroke-width="1.5" stroke-linecap="round" stroke-linejoin="round"/>
<path d="M18.4999 23.9199C15.8399 25.6999 15.8399 28.5999 18.4999 30.3799C21.5199 32.3999 26.4799 32.3999 29.4999 30.3799C32.1599 28.5999 32.1599 25.6999 29.4999 23.9199C26.4799 21.9199 21.5399 21.9199 18.4999 23.9199Z" stroke="white" stroke-width="1.5" stroke-linecap="round" stroke-linejoin="round"/>
</svg>
