<svg width="30" height="30" viewBox="0 0 30 30" fill="none" xmlns="http://www.w3.org/2000/svg">
<g clip-path="url(#clip0_718_386)">
<path d="M29.4492 3.95888C29.4316 3.94238 25.962 0.633441 25.962 0.633441C25.8293 0.506172 25.6921 0.374634 25.436 0.374634H11.4675C11.0595 0.374634 10.7276 0.706538 10.7276 1.11454V3.38663L5.80438 4.23056C5.40976 4.29979 5.14438 4.67744 5.21275 5.07165L5.46261 6.5285C3.8624 7.067 2.21949 7.62211 0.633476 8.19182C0.258706 8.32884 0.0620334 8.74555 0.195764 9.12257L3.35067 17.8927C3.41413 18.0692 3.58046 18.1791 3.75786 18.1791C3.80644 18.1791 3.85594 18.1709 3.90428 18.1534C4.12917 18.0725 4.24588 17.8247 4.16499 17.5998L1.05676 8.95936C2.55099 8.42438 4.09842 7.90077 5.61071 7.39175L7.0975 16.0597L8.8083 26.0423C8.87009 26.3947 9.17984 26.6455 9.52946 26.6455C9.56903 26.6455 9.60919 26.6422 9.64946 26.6356L14.2831 25.8404L17.9038 25.2198L12.4582 27.1771L8.16388 28.7211L4.8288 19.4448C4.74798 19.2199 4.50019 19.1032 4.27525 19.1841C4.05036 19.2649 3.93365 19.5127 4.01448 19.7376L7.39686 29.1457C7.50503 29.4416 7.7853 29.6255 8.08155 29.6255C8.16342 29.6255 8.24655 29.6114 8.32755 29.5818L12.7509 27.9915L22.7948 24.3814L24.7136 24.0525H28.9523C29.3603 24.0525 29.6922 23.7199 29.6922 23.311V4.44644C29.6923 4.18746 29.5517 4.05534 29.4492 3.95888ZM28.3028 4.06134H26.1376L26.0839 4.06157C25.9802 4.06227 25.7375 4.06406 25.676 4.0029C25.6618 3.98877 25.6452 3.94157 25.6452 3.85394L25.6402 1.52231L28.3028 4.06134ZM28.8269 23.187H11.5929V14.7543C11.5929 14.5154 11.3992 14.3216 11.1602 14.3216C10.9213 14.3216 10.7276 14.5154 10.7276 14.7543V23.3108C10.7276 23.7197 11.0595 24.0524 11.4675 24.0524H19.5913L14.1368 24.9874L9.6378 25.7595L7.95042 15.9134L6.08875 5.05977L10.7275 4.26459V12.7466C10.7275 12.9856 10.9212 13.1793 11.1602 13.1793C11.3991 13.1793 11.5929 12.9856 11.5929 12.7466V1.23996H24.7741L24.7798 3.85492C24.7798 4.17188 24.8762 4.42827 25.0663 4.61704C25.3584 4.90706 25.7713 4.92725 26.0276 4.92725C26.0497 4.92725 26.0705 4.92707 26.0901 4.92696L28.8269 4.92679V23.187Z" fill="white"/>
<path d="M13.6786 7.09328C13.6786 7.33224 13.8723 7.52597 14.1113 7.52597H26.4826C26.7216 7.52597 26.9153 7.33224 26.9153 7.09328C26.9153 6.85431 26.7216 6.66058 26.4826 6.66058H14.1113C13.8723 6.66058 13.6786 6.85431 13.6786 7.09328Z" fill="white"/>
<path d="M26.4826 9.73456H14.1113C13.8723 9.73456 13.6786 9.92829 13.6786 10.1673C13.6786 10.4062 13.8723 10.5999 14.1113 10.5999H26.4826C26.7216 10.5999 26.9153 10.4062 26.9153 10.1673C26.9153 9.92829 26.7216 9.73456 26.4826 9.73456Z" fill="white"/>
<path d="M26.4826 12.8085H14.1113C13.8723 12.8085 13.6786 13.0022 13.6786 13.2412C13.6786 13.4801 13.8723 13.6739 14.1113 13.6739H26.4826C26.7216 13.6739 26.9153 13.4801 26.9153 13.2412C26.9153 13.0022 26.7216 12.8085 26.4826 12.8085Z" fill="white"/>
<path d="M26.4826 15.8824H14.1113C13.8723 15.8824 13.6786 16.0762 13.6786 16.3151C13.6786 16.5541 13.8723 16.7478 14.1113 16.7478H26.4826C26.7216 16.7478 26.9153 16.5541 26.9153 16.3151C26.9153 16.0762 26.7216 15.8824 26.4826 15.8824Z" fill="white"/>
<path d="M26.4826 18.9564H14.1113C13.8723 18.9564 13.6786 19.1502 13.6786 19.3891C13.6786 19.6281 13.8723 19.8218 14.1113 19.8218H26.4826C26.7216 19.8218 26.9153 19.6281 26.9153 19.3891C26.9153 19.1502 26.7216 18.9564 26.4826 18.9564Z" fill="white"/>
</g>
<defs>
<clipPath id="clip0_718_386">
<rect width="29.5385" height="29.5385" fill="white" transform="translate(0.153809 0.230774)"/>
</clipPath>
</defs>
</svg>
