<svg width="30" height="30" viewBox="0 0 30 30" fill="none" xmlns="http://www.w3.org/2000/svg">
<g clip-path="url(#clip0_718_396)">
<path d="M0.895469 28.4703C0.812198 28.4703 0.727598 28.4546 0.64574 28.4214C0.30551 28.2834 0.141627 27.8956 0.279664 27.5554L2.11362 23.0353C2.92281 21.0417 4.37307 18.3914 7.61107 18.3914H10.0437C13.2818 18.3914 14.7321 21.0417 15.5412 23.0352L15.7778 23.6182L20.7068 19.0631C20.9765 18.8139 21.3971 18.8304 21.6463 19.1001C21.8955 19.3698 21.879 19.7904 21.6093 20.0396L15.9743 25.2472C15.814 25.3954 15.5909 25.4554 15.3782 25.4078C15.1652 25.3602 14.989 25.2111 14.907 25.0089L14.3092 23.5353C13.4416 21.3978 12.4522 20.2402 11.117 19.8619L9.33549 22.3032C9.21034 22.4748 9.0108 22.5761 8.79847 22.5761C8.58614 22.5761 8.3866 22.4748 8.26145 22.3032L6.49007 19.8759C5.17918 20.2682 4.20295 21.4236 3.34573 23.5355L1.51186 28.0555C1.4069 28.3137 1.15808 28.4703 0.895469 28.4703ZM8.02335 19.7211L8.79847 20.7833L9.57359 19.7211H8.02335ZM29.1043 26.3488H18.9984C18.6312 26.3488 18.3336 26.0511 18.3336 25.6839C18.3336 25.3168 18.6312 25.0191 18.9984 25.0191H28.4395V5.87726H27.1699V8.78451C27.1699 10.2191 26.0029 11.3861 24.5683 11.3861H16.6986L14.2996 12.7307C14.0936 12.8461 13.8421 12.8437 13.6385 12.7243C13.4349 12.605 13.3097 12.3868 13.3097 12.1507V4.13132C13.3097 2.69676 14.4768 1.52972 15.9114 1.52972H24.5684C26.003 1.52972 27.17 2.69676 27.17 4.13132V4.54759H29.1044C29.4716 4.54759 29.7693 4.84527 29.7693 5.21242V25.6839C29.7692 26.0512 29.4715 26.3488 29.1043 26.3488ZM15.9113 2.8594C15.21 2.8594 14.6393 3.43 14.6393 4.13132V11.016L16.1999 10.1414C16.2991 10.0857 16.411 10.0565 16.5249 10.0565H24.5682C25.2696 10.0565 25.8402 9.48591 25.8402 8.78459V4.13132C25.8402 3.43 25.2696 2.8594 24.5682 2.8594H15.9113ZM1.42252 20.5318C1.05536 20.5318 0.757682 20.2341 0.757682 19.8669V5.21242C0.757682 4.84527 1.05536 4.54759 1.42252 4.54759H11.0713C11.4385 4.54759 11.7361 4.84527 11.7361 5.21242C11.7361 5.57958 11.4385 5.87726 11.0713 5.87726H2.08736V19.8669C2.08736 20.2342 1.78968 20.5318 1.42252 20.5318ZM8.82739 17.1789C6.8072 17.1789 5.16372 15.5354 5.16372 13.5153C5.16372 11.8521 6.27791 10.4441 7.79914 9.99859C7.80712 9.99601 7.81501 9.99352 7.82307 9.99127C8.14859 9.89861 8.48641 9.85166 8.82722 9.85166C10.6666 9.85166 12.1988 11.1916 12.4541 12.9939C12.4784 13.1642 12.4911 13.3384 12.4911 13.5153C12.4911 15.5354 10.8476 17.1789 8.82739 17.1789ZM7.53844 11.5704C6.90909 11.9889 6.49348 12.7045 6.49348 13.5153C6.49348 14.8023 7.54052 15.8492 8.82747 15.8492C9.95063 15.8492 10.891 15.052 11.1122 13.9936C11.0712 13.9949 11.0303 13.9956 10.9893 13.9956C9.40372 13.9957 8.04629 12.9998 7.53844 11.5704ZM8.81301 11.1814C9.1525 12.0594 10.0013 12.666 10.9893 12.666C10.9933 12.666 10.9975 12.666 11.0015 12.666C10.6611 11.7978 9.81492 11.1814 8.82747 11.1814C8.82265 11.1814 8.81775 11.1814 8.81301 11.1814ZM22.5922 8.45982H17.2761C16.9089 8.45982 16.6112 8.16214 16.6112 7.79498C16.6112 7.42783 16.9089 7.13015 17.2761 7.13015H22.5922C22.9593 7.13015 23.257 7.42783 23.257 7.79498C23.257 8.16214 22.9593 8.45982 22.5922 8.45982ZM20.9499 5.78568H17.2761C16.909 5.78568 16.6113 5.488 16.6113 5.12084C16.6113 4.75369 16.909 4.456 17.2761 4.456H20.9499C21.317 4.456 21.6147 4.75369 21.6147 5.12084C21.6147 5.488 21.317 5.78568 20.9499 5.78568ZM10.9558 2.85956H8.36325C7.9961 2.85956 7.69841 2.56188 7.69841 2.19473C7.69841 1.82757 7.9961 1.52989 8.36325 1.52989H10.9558C11.3229 1.52989 11.6206 1.82757 11.6206 2.19473C11.6206 2.56188 11.3229 2.85956 10.9558 2.85956Z" fill="white"/>
</g>
<defs>
<clipPath id="clip0_718_396">
<rect width="29.5385" height="29.5385" fill="white" transform="translate(0.230713 0.230774)"/>
</clipPath>
</defs>
</svg>
