<svg width="310" height="176" viewBox="0 0 310 176" xmlns="http://www.w3.org/2000/svg">
<path fill-rule="evenodd" clip-rule="evenodd" d="M194.958 79.9167C204.232 84.8237 211.591 87.331 222.511 91.0029C241.233 97.2988 273.105 99.4979 271.005 120.038C269.205 137.64 229.68 144.651 211.832 122.76C210.232 120.798 208.529 118.704 207.296 116.757C202.447 109.097 200.755 103.627 188.81 103.627C186.935 111.677 184.597 119.612 182.486 128.04C180.422 136.285 176.874 139.361 189.316 147.909C208.084 160.802 222.77 162.467 245.892 162.467C267.739 162.467 293.371 154.487 303.27 137.294C306.976 130.857 309.329 123.722 310 116.573V108.28C309.041 98.4136 304.541 89.0385 295.593 82.0289C287.127 75.3974 278.576 72.2573 267.738 68.6084C248.172 62.0229 212.521 59.3782 212.521 42.155C212.521 27.4742 245.31 17.5807 262.791 37.5503C267.969 43.4659 274.229 53.5718 284.533 53.5718C302.349 53.5718 308.933 35.4099 295.754 21.2734C291.228 16.4206 287.803 13.966 282.086 10.3506C267.175 0.917577 239.237 -0.697788 219.872 2.0851C213.085 3.06026 214.448 3.30832 212.863 10.0045C207.488 32.6946 200.318 56.908 194.957 79.9182L194.958 79.9167Z"/>
<path fill-rule="evenodd" clip-rule="evenodd" d="M30.7365 92.212H32.493C32.8903 87.4454 45.4604 53.8116 47.97 46.2161C50.6578 38.0873 53.2075 31.2567 55.8842 23.393C57.4557 18.7772 63.147 3.7309 63.2302 0.00256348H0C0.121059 5.44727 20.436 60.8583 23.1632 69.0481C24.5528 73.2198 25.7886 76.556 27.0965 80.0452C28.2373 83.0858 30.4669 88.9664 30.7365 92.2128V92.212Z"/>
<path fill-rule="evenodd" clip-rule="evenodd" d="M144.024 92.2102C144.957 88.2056 146.284 84.8657 147.795 81.0505L175.639 0H111.531C114.403 12.3265 133.606 64.0264 139.302 81.1247C140.563 84.9117 141.273 90.193 144.025 92.2095L144.024 92.2102Z"/>
<path fill-rule="evenodd" clip-rule="evenodd" d="M58.8386 162.465H122.947C122.009 158.442 120.666 155.708 119.332 152.029C116.247 143.522 93.8278 80.6315 90.453 78.1598C90.1366 81.9713 88.1833 85.5437 86.9319 88.6897L63.1039 151.801C61.776 155.082 60.4993 159.329 58.8386 162.465Z"/>
<path d="M43.2765 175.529L43.3399 175.674L43.3994 175.537H43.4272L43.3399 175.739L43.2765 175.594L43.2131 175.739L43.1257 175.537H43.1535L43.2134 175.675L43.2765 175.529ZM43.5069 175.529L43.6 175.733H43.5718L43.5488 175.683H43.4651L43.4427 175.733H43.4147L43.5069 175.529ZM43.5069 175.591L43.4752 175.661H43.5386L43.5069 175.591ZM43.6287 175.536H43.6553V175.707H43.7195V175.733H43.6287V175.536ZM43.7251 175.536H43.8456V175.563H43.7986V175.733H43.772V175.563H43.7251V175.536ZM43.8739 175.536H43.9831V175.563H43.9005V175.612H43.9831V175.639H43.9005V175.707H43.9831V175.733H43.8739V175.536ZM44.0191 175.536H44.0618C44.083 175.536 44.1003 175.542 44.1136 175.552C44.127 175.563 44.1337 175.576 44.1337 175.593C44.1337 175.606 44.1293 175.618 44.1207 175.628C44.112 175.638 44.0985 175.645 44.0802 175.649L44.1375 175.733H44.1068L44.052 175.652H44.046V175.733H44.0191V175.536ZM44.046 175.56V175.629C44.0857 175.63 44.1055 175.618 44.1055 175.594C44.1055 175.586 44.1032 175.579 44.0986 175.574C44.0939 175.569 44.0877 175.565 44.08 175.563C44.0723 175.561 44.0609 175.56 44.046 175.56ZM44.2936 175.558L44.2718 175.576C44.266 175.57 44.2607 175.565 44.256 175.562C44.2514 175.559 44.2446 175.558 44.2357 175.558C44.2261 175.558 44.2182 175.56 44.2121 175.565C44.2061 175.569 44.2031 175.574 44.2031 175.581C44.2031 175.587 44.2057 175.593 44.211 175.597C44.2163 175.602 44.2252 175.607 44.2379 175.612C44.2506 175.618 44.2604 175.623 44.2675 175.627C44.2746 175.632 44.2804 175.637 44.2849 175.643C44.2895 175.649 44.2928 175.655 44.295 175.661C44.2972 175.667 44.2984 175.674 44.2984 175.681C44.2984 175.697 44.2924 175.711 44.2804 175.723C44.2686 175.734 44.2542 175.74 44.2373 175.74C44.2208 175.74 44.2062 175.736 44.1935 175.727C44.181 175.718 44.1713 175.704 44.1645 175.686L44.1914 175.678C44.2012 175.701 44.2162 175.712 44.2364 175.712C44.2462 175.712 44.2543 175.709 44.2608 175.703C44.2673 175.697 44.2705 175.689 44.2705 175.681C44.2705 175.675 44.2688 175.67 44.2654 175.664C44.262 175.659 44.2578 175.654 44.2528 175.651C44.2477 175.647 44.2396 175.643 44.2285 175.639C44.2174 175.635 44.2089 175.63 44.203 175.627C44.1971 175.623 44.192 175.618 44.1877 175.613C44.1833 175.608 44.1801 175.603 44.1781 175.598C44.1761 175.592 44.1751 175.587 44.1751 175.581C44.1751 175.567 44.1808 175.555 44.1921 175.545C44.2035 175.535 44.2172 175.53 44.2334 175.53C44.2442 175.53 44.255 175.532 44.2661 175.537C44.2771 175.542 44.2863 175.549 44.2936 175.558ZM44.4051 175.529L44.4982 175.733H44.47L44.447 175.683H44.3633L44.3409 175.733H44.3129L44.4051 175.529ZM44.4051 175.591L44.3734 175.661H44.4368L44.4051 175.591ZM44.6856 175.528L44.7394 175.733H44.7131L44.6805 175.608L44.6244 175.741L44.5681 175.607L44.5351 175.733H44.5089L44.5627 175.528L44.6244 175.675L44.6856 175.528ZM44.9753 175.558L44.9535 175.576C44.9477 175.57 44.9424 175.565 44.9377 175.562C44.9331 175.559 44.9263 175.558 44.9174 175.558C44.9077 175.558 44.8999 175.56 44.8938 175.565C44.8878 175.569 44.8848 175.574 44.8848 175.581C44.8848 175.587 44.8874 175.593 44.8927 175.597C44.898 175.602 44.9069 175.607 44.9196 175.612C44.9323 175.618 44.9421 175.623 44.9491 175.627C44.9563 175.632 44.9621 175.637 44.9666 175.643C44.9712 175.649 44.9745 175.655 44.9767 175.661C44.9789 175.667 44.9801 175.674 44.9801 175.681C44.9801 175.697 44.9741 175.711 44.9621 175.723C44.9503 175.734 44.9359 175.74 44.919 175.74C44.9025 175.74 44.8879 175.736 44.8752 175.727C44.8626 175.718 44.853 175.704 44.8461 175.686L44.8731 175.678C44.8829 175.701 44.8979 175.712 44.9181 175.712C44.9279 175.712 44.936 175.709 44.9425 175.703C44.949 175.697 44.9522 175.689 44.9522 175.681C44.9522 175.675 44.9505 175.67 44.9471 175.664C44.9437 175.659 44.9395 175.654 44.9345 175.651C44.9294 175.647 44.9213 175.643 44.9102 175.639C44.8991 175.635 44.8906 175.63 44.8847 175.627C44.8788 175.623 44.8737 175.618 44.8693 175.613C44.865 175.608 44.8618 175.603 44.8598 175.598C44.8578 175.592 44.8568 175.587 44.8568 175.581C44.8568 175.567 44.8625 175.555 44.8738 175.545C44.8852 175.535 44.8989 175.53 44.9151 175.53C44.9258 175.53 44.9367 175.532 44.9478 175.537C44.9588 175.542 44.968 175.549 44.9753 175.558ZM45.0112 175.536H45.1203V175.563H45.0378V175.612H45.1203V175.639H45.0378V175.707H45.1203V175.733H45.0112V175.536ZM45.1564 175.536H45.1991C45.2203 175.536 45.2376 175.542 45.2509 175.552C45.2643 175.563 45.271 175.576 45.271 175.593C45.271 175.606 45.2666 175.618 45.258 175.628C45.2493 175.638 45.2358 175.645 45.2175 175.649L45.2748 175.733H45.2441L45.1893 175.652H45.1833V175.733H45.1564V175.536ZM45.1833 175.56V175.629C45.223 175.63 45.2428 175.618 45.2428 175.594C45.2428 175.586 45.2405 175.579 45.2359 175.574C45.2312 175.569 45.225 175.565 45.2173 175.563C45.2096 175.561 45.1982 175.56 45.1833 175.56ZM45.2877 175.537H45.3161L45.3778 175.676L45.44 175.537H45.4688L45.3775 175.74L45.2877 175.537ZM45.4952 175.536H45.5218V175.733H45.4952V175.536ZM45.7244 175.543V175.573C45.7032 175.563 45.6836 175.558 45.6658 175.558C45.6429 175.558 45.6236 175.565 45.6079 175.58C45.5923 175.595 45.5844 175.613 45.5844 175.635C45.5844 175.657 45.5924 175.675 45.6084 175.69C45.6245 175.704 45.6446 175.712 45.6687 175.712C45.6863 175.712 45.7048 175.706 45.7244 175.695V175.726C45.7066 175.735 45.6872 175.74 45.6664 175.74C45.6359 175.74 45.6098 175.73 45.5882 175.709C45.5665 175.688 45.5557 175.663 45.5557 175.634C45.5557 175.606 45.5663 175.581 45.5875 175.561C45.6089 175.54 45.6345 175.53 45.6645 175.53C45.6838 175.53 45.7038 175.534 45.7244 175.543ZM45.7544 175.536H45.8636V175.563H45.781V175.612H45.8636V175.639H45.781V175.707H45.8636V175.733H45.7544V175.536ZM46.0158 175.558L45.994 175.576C45.9882 175.57 45.9829 175.565 45.9782 175.562C45.9735 175.559 45.9668 175.558 45.9579 175.558C45.9482 175.558 45.9403 175.56 45.9343 175.565C45.9283 175.569 45.9253 175.574 45.9253 175.581C45.9253 175.587 45.9279 175.593 45.9332 175.597C45.9384 175.602 45.9474 175.607 45.9601 175.612C45.9728 175.618 45.9826 175.623 45.9896 175.627C45.9967 175.632 46.0026 175.637 46.0071 175.643C46.0116 175.649 46.015 175.655 46.0171 175.661C46.0194 175.667 46.0206 175.674 46.0206 175.681C46.0206 175.697 46.0146 175.711 46.0026 175.723C45.9908 175.734 45.9764 175.74 45.9595 175.74C45.943 175.74 45.9284 175.736 45.9157 175.727C45.9031 175.718 45.8934 175.704 45.8866 175.686L45.9135 175.678C45.9233 175.701 45.9383 175.712 45.9585 175.712C45.9683 175.712 45.9765 175.709 45.983 175.703C45.9895 175.697 45.9927 175.689 45.9927 175.681C45.9927 175.675 45.991 175.67 45.9876 175.664C45.9842 175.659 45.98 175.654 45.9749 175.651C45.9699 175.647 45.9618 175.643 45.9507 175.639C45.9396 175.635 45.9311 175.63 45.9251 175.627C45.9193 175.623 45.9142 175.618 45.9098 175.613C45.9055 175.608 45.9023 175.603 45.9002 175.598C45.8983 175.592 45.8973 175.587 45.8973 175.581C45.8973 175.567 45.903 175.555 45.9143 175.545C45.9256 175.535 45.9394 175.53 45.9556 175.53C45.9663 175.53 45.9772 175.532 45.9882 175.537C45.9993 175.542 46.0084 175.549 46.0158 175.558Z"/>
</svg>
